<?xml version="1.0" standalone="no"?>
<!DOCTYPE svg PUBLIC "-//W3C//DTD SVG 20010904//EN"
 "http://www.w3.org/TR/2001/REC-SVG-20010904/DTD/svg10.dtd">
<svg version="1.0" xmlns="http://www.w3.org/2000/svg"
 width="512.000000pt" height="512.000000pt" viewBox="0 0 512.000000 512.000000"
 preserveAspectRatio="xMidYMid meet">

<g transform="translate(0.000000,512.000000) scale(0.100000,-0.100000)"
fill="#000000" stroke="none">
<path d="M2390 5110 c-622 -43 -1196 -304 -1635 -745 -61 -60 -141 -148 -179
-195 -91 -114 -228 -322 -219 -331 13 -13 842 -489 850 -489 4 1 36 42 70 93
179 267 460 483 772 591 186 65 281 80 496 80 216 0 332 -18 512 -78 166 -56
291 -124 497 -271 39 -29 57 -35 98 -35 27 0 61 6 76 14 32 18 535 522 551
553 19 38 13 116 -12 154 -46 69 -311 262 -497 362 -421 227 -903 331 -1380
297z"/>
<path d="M2754 2975 c-74 -44 -74 -44 -74 -472 0 -427 0 -427 76 -470 l39 -23
612 0 613 0 -21 -52 c-93 -239 -327 -528 -549 -678 -52 -35 -98 -68 -101 -73
-3 -5 -9 -8 -13 -7 -4 1 -49 -19 -101 -44 -177 -86 -377 -139 -573 -152 l-102
-7 0 -499 0 -500 108 7 c294 18 540 68 791 161 494 184 964 561 1253 1004 311
476 455 1079 386 1620 -12 99 -35 149 -80 182 l-33 23 -1095 2 -1095 3 -41
-25z m696 -1945 c6 -11 8 -20 6 -20 -3 0 -10 9 -16 20 -6 11 -8 20 -6 20 3 0
10 -9 16 -20z m40 -70 c6 -11 8 -20 6 -20 -3 0 -10 9 -16 20 -6 11 -8 20 -6
20 3 0 10 -9 16 -20z m110 -190 c6 -11 8 -20 6 -20 -3 0 -10 9 -16 20 -6 11
-8 20 -6 20 3 0 10 -9 16 -20z m110 -190 c6 -11 8 -20 6 -20 -3 0 -10 9 -16
20 -6 11 -8 20 -6 20 3 0 10 -9 16 -20z m40 -70 c6 -11 8 -20 6 -20 -3 0 -10
9 -16 20 -6 11 -8 20 -6 20 3 0 10 -9 16 -20z m70 -120 c6 -11 8 -20 6 -20 -3
0 -10 9 -16 20 -6 11 -8 20 -6 20 3 0 10 -9 16 -20z"/>
</g>
</svg>
